<?xml version="1.0" encoding="UTF-8"?>
<svg version="1.1" xmlns="http://www.w3.org/2000/svg" width="1024" height="1024">
<path d="M0 0 C337.92 0 675.84 0 1024 0 C1024 337.92 1024 675.84 1024 1024 C686.08 1024 348.16 1024 0 1024 C0 686.08 0 348.16 0 0 Z " fill="#96D8F4" transform="translate(0,0)"/>
<path d="M0 0 C8.53167359 5.2559551 15.20018802 14.05867402 21.36328125 21.79296875 C25.05111619 26.26544942 29.02331239 30.46228488 32.9765625 34.69921875 C35.11354314 36.9910841 37.20223348 39.31508757 39.25 41.6875 C42.33897394 45.26101887 45.53844069 48.72459273 48.75 52.1875 C52.56032413 56.29676467 56.32088546 60.43431399 59.984375 64.67578125 C62.1591057 67.15362707 64.39338402 69.57328875 66.625 72 C70.7458725 76.51304013 74.62282517 81.1722181 78.4609375 85.92578125 C81.65747174 89.78235072 85.03446754 93.45969624 88.421875 97.1484375 C92.55868687 101.66006119 96.55610823 106.28735491 100.53125 110.94140625 C101.5624583 112.14847313 102.59370948 113.35550337 103.625 114.5625 C104.14473389 115.17109863 104.66446777 115.77969727 105.19995117 116.40673828 C108.22905595 119.94392957 111.30156303 123.43151054 114.4375 126.875 C117.46712868 130.20977114 120.35608092 133.62037639 123.1875 137.125 C126.28148714 140.95205727 129.4783055 144.63030873 132.8125 148.25 C136.57294047 152.33919063 140.07478547 156.54268451 143.50390625 160.91015625 C146.25193263 164.30815061 149.12100958 167.58797364 152 170.875 C200.88579355 226.8836478 254.61968089 295.82551052 249.60058594 374.01513672 C247.66386509 398.23521429 240.1767056 424.35765591 226.75 444.6875 C226.29028809 445.39535645 225.83057617 446.10321289 225.35693359 446.83251953 C205.93264746 476.34633854 177.34866589 498.80102938 142.66015625 506.8828125 C134.6001616 508.5415127 128.96897033 508.69914247 121.85546875 504.2421875 C115.49298589 499.54410183 110.47410323 494.47556245 109.24609375 486.35546875 C109.12861346 479.37713941 109.5032955 474.47184842 113.65625 468.75 C119.74240006 462.754688 125.90308179 459.54461248 133.9375 456.8125 C142.66670539 453.65407606 150.17500517 450.13983144 157.75 444.6875 C158.6884375 444.01203125 159.626875 443.3365625 160.59375 442.640625 C172.55687246 433.43305322 180.90570381 422.00106246 187.75 408.6875 C188.23210937 407.77484375 188.71421875 406.8621875 189.2109375 405.921875 C201.05623463 381.94412203 201.45308804 349.63488179 193.0859375 324.51953125 C182.86981939 295.62813913 165.04720978 270.12418769 146.37109375 246.08984375 C144.01906434 243.05384668 141.72524936 239.97717535 139.43652344 236.89331055 C134.28477005 229.95690252 128.97795925 223.18191709 123.48754883 216.51025391 C119.08336831 211.14788908 114.8959412 205.64753668 110.7734375 200.06640625 C108.90232429 197.45063623 108.90232429 197.45063623 105.75 196.6875 C105.51796875 197.26113281 105.2859375 197.83476562 105.046875 198.42578125 C97.79504062 211.07280566 76.13583671 221.20878108 62.92112732 225.22914124 C56.26080972 227.01867363 49.88704746 227.116631 43.02368164 227.09155273 C41.68193498 227.09726966 40.34019318 227.10423898 38.99845886 227.11235046 C35.3867781 227.13015072 31.77534201 227.12913863 28.16363072 227.12340808 C25.13457731 227.12029723 22.10556963 227.12642955 19.07652277 227.13244683 C11.92410401 227.14644715 4.77180481 227.14496823 -2.38061523 227.13354492 C-9.72944138 227.12206642 -17.07790244 227.13614495 -24.42668051 227.1629414 C-30.76506756 227.18517777 -37.10334069 227.19171804 -43.44176394 227.18586498 C-47.2147383 227.1825133 -50.98747874 227.18479019 -54.76041985 227.20211601 C-58.31064401 227.21771078 -61.86033188 227.21349314 -65.41053581 227.19481087 C-67.31419616 227.18943515 -69.21788134 227.20354295 -71.12149048 227.21850586 C-82.40813607 227.12296535 -91.95640555 223.83221972 -101.8125 218.5 C-102.53429443 218.11271729 -103.25608887 217.72543457 -103.99975586 217.32641602 C-113.72437047 211.95134447 -121.62675 204.70392622 -129.25 196.6875 C-136.92675804 204.11662069 -143.7988065 212.18550605 -150.25 220.6875 C-150.97574219 221.61820313 -151.70148438 222.54890625 -152.44921875 223.5078125 C-158.57598135 231.38085043 -164.45107718 239.42038721 -170.26953125 247.5234375 C-170.77049316 248.21920898 -171.27145508 248.91498047 -171.78759766 249.63183594 C-172.76479534 251.00545939 -173.72804384 252.3891107 -174.67724609 253.78222656 C-175.8219173 255.45002046 -177.03018453 257.07385231 -178.25 258.6875 C-178.91 258.6875 -179.57 258.6875 -180.25 258.6875 C-180.51941406 259.41453125 -180.78882813 260.1415625 -181.06640625 260.890625 C-182.22923414 263.63842952 -183.56105828 265.94017628 -185.1875 268.4375 C-185.80625 269.39914062 -186.425 270.36078125 -187.0625 271.3515625 C-188.65146934 273.77474074 -190.25541108 276.18346925 -191.875 278.5859375 C-197.58670621 287.13197154 -202.42177123 295.68004978 -206.59375 305.078125 C-208.25 308.6875 -208.25 308.6875 -209.78125 311.125 C-222.87838705 333.97532421 -223.1572418 366.149198 -217.03369141 390.94091797 C-209.43670155 417.56588241 -193.00506998 437.86183356 -169.25 451.6875 C-163.38937131 454.78594714 -157.42135729 456.95739159 -151.125 459 C-143.46420233 461.67413135 -137.77635718 465.5019563 -133.54296875 472.515625 C-131.00990443 478.72966798 -131.0525267 486.00992644 -133.12890625 492.38671875 C-136.67635589 499.28258621 -141.64059013 504.04327253 -149 506.5625 C-167.91242763 511.23398287 -186.24384967 501.1385938 -202.3046875 491.9375 C-237.43218582 470.44305344 -257.8385964 435.56989827 -268.25 396.6875 C-268.59160156 395.56214844 -268.93320312 394.43679688 -269.28515625 393.27734375 C-278.96487435 357.26252215 -270.57116272 317.33673826 -254.25 284.6875 C-253.85280762 283.88650879 -253.45561523 283.08551758 -253.04638672 282.26025391 C-238.5854117 253.52191763 -219.03791798 226.95805767 -199.25 201.6875 C-198.82009766 201.13674805 -198.39019531 200.58599609 -197.94726562 200.01855469 C-191.70060121 192.01644078 -185.38259307 184.07232866 -179.02734375 176.15625 C-177.36226632 174.08124664 -175.70940435 171.99894167 -174.06640625 169.90625 C-169.8013633 164.48269438 -165.29293185 159.35408283 -160.625 154.2734375 C-155.90343898 149.13252731 -151.3839694 143.86896651 -147 138.4375 C-143.27248888 133.84784345 -139.36165983 129.49408676 -135.33691406 125.16894531 C-132.34616078 121.93609336 -129.51242959 118.62080535 -126.75 115.1875 C-123.11800391 110.67344772 -119.2906487 106.41485725 -115.34472656 102.17895508 C-112.259221 98.84606775 -109.34835139 95.41606269 -106.5 91.875 C-104.03761239 88.81447922 -101.57549791 85.91579041 -98.75 83.1875 C-95.94474298 80.47853326 -93.50370468 77.60414461 -91.0625 74.5625 C-86.61250413 69.03233419 -81.85587423 63.856158 -77.01953125 58.66796875 C-73.67598121 55.08104845 -70.45092742 51.40184351 -67.25 47.6875 C-66.22817702 46.50754187 -65.20600658 45.32788458 -64.18359375 44.1484375 C-63.34501831 43.18103638 -63.34501831 43.18103638 -62.48950195 42.1940918 C-61.91546631 41.5319165 -61.34143066 40.86974121 -60.75 40.1875 C-59.60674702 38.86851022 -58.46351721 37.54950036 -57.3203125 36.23046875 C-56.78438477 35.61220215 -56.24845703 34.99393555 -55.69628906 34.35693359 C-54.54382849 33.0266626 -53.39276789 31.69517879 -52.2421875 30.36328125 C-45.19966902 22.24907518 -37.94049265 14.31595636 -30.4375 6.625 C-29.58542969 5.74714844 -28.73335937 4.86929688 -27.85546875 3.96484375 C-20.53912027 -2.43010552 -9.07344234 -3.84021211 0 0 Z " fill="#00405C" transform="translate(519.25,236.3125)"/>
<path d="M0 0 C5.26316327 3.56824629 8.75022467 7.73051497 10.82421875 13.78125 C12.24370153 21.73966168 10.39851712 28.1984399 5.82421875 34.78125 C1.81342631 39.33156528 -3.33306388 42.1389433 -8.515625 45.171875 C-42.27077491 65.59349286 -61.16475242 99.26059655 -70.63378906 136.56494141 C-71.1039792 138.48763782 -71.53058891 140.42089146 -71.94921875 142.35546875 C-73.60443754 149.95973862 -75.88198238 156.76691645 -82.49609375 161.41015625 C-84.68825823 162.6472137 -86.87977962 163.75264127 -89.17578125 164.78125 C-89.83578125 165.11125 -90.49578125 165.44125 -91.17578125 165.78125 C-98.46807493 166.78140833 -103.85857165 165.82874929 -109.953125 161.65625 C-118.9819862 154.03963598 -120.5806608 142.93734084 -123.02734375 131.9609375 C-130.22809726 100.9663898 -148.30768403 68.62548019 -175.3828125 50.65234375 C-178.62814092 48.66132154 -181.89515806 46.71344662 -185.17578125 44.78125 C-192.71896002 40.21030884 -199.38400711 35.50868807 -202.17578125 26.78125 C-203.00782583 19.45049929 -203.33682117 12.53668797 -198.734375 6.4609375 C-192.67714843 -0.06690065 -187.57182433 -3.464329 -178.42578125 -3.84375 C-158.61492648 -3.93208178 -139.72594558 12.93195624 -126.17578125 25.78125 C-124.44858615 27.30432205 -122.71939743 28.82513611 -120.98828125 30.34375 C-114.02175344 36.65142789 -108.40585549 43.68896076 -102.73828125 51.15625 C-102.19316895 51.87111572 -101.64805664 52.58598145 -101.08642578 53.32250977 C-100.58095215 53.99725342 -100.07547852 54.67199707 -99.5546875 55.3671875 C-99.09650635 55.9761084 -98.6383252 56.5850293 -98.16625977 57.21240234 C-97.17578125 58.78125 -97.17578125 58.78125 -97.17578125 60.78125 C-93.84498204 57.64078217 -91.15117737 54.46765232 -88.53662109 50.71850586 C-82.89934212 42.69342357 -76.4678569 35.6602159 -69.55078125 28.71875 C-68.68066406 27.83896484 -67.81054688 26.95917969 -66.9140625 26.05273438 C-61.38805553 20.59757365 -55.684229 16.0067532 -49.17578125 11.78125 C-48.48033203 11.32065186 -47.78488281 10.86005371 -47.06835938 10.38549805 C-16.83805753 -9.43173061 -16.83805753 -9.43173061 0 0 Z " fill="#003F5B" transform="translate(604.17578125,657.21875)"/>
<path d="M0 0 C6.78560623 4.48106072 9.53277977 10.72479661 12.7734375 17.9296875 C17.87781355 29.24336524 17.87781355 29.24336524 28 36 C32.98315052 37.34869107 38.01717712 37.16261731 43.1394043 37.17700195 C44.15794998 37.18357315 45.17649567 37.19014435 46.22590637 37.19691467 C49.5920113 37.21660227 52.95807171 37.22830038 56.32421875 37.23828125 C57.47660349 37.24235678 58.62898823 37.2464323 59.81629372 37.25063133 C65.91618291 37.27147299 72.01604973 37.28578282 78.1159668 37.29516602 C84.40270296 37.30622475 90.68908464 37.34062442 96.97569561 37.38033772 C101.82201274 37.40653358 106.66824576 37.41486053 111.51462746 37.41844749 C113.83136196 37.42330592 116.14809289 37.43489855 118.46475792 37.45348549 C121.71466229 37.47793882 124.96365406 37.47690021 128.21362305 37.4699707 C129.16099335 37.48278076 130.10836365 37.49559082 131.08444214 37.50878906 C138.21917559 37.45364534 145.31365769 36.1595074 150.88413525 31.3851366 C154.83122426 27.22155526 156.91277278 22.27113314 159 17 C162.69922048 7.65790082 166.98030742 1.14703662 176.34765625 -3.12109375 C182.11780511 -5.03314602 187.04229444 -4.65256852 192.75 -2.75 C193.8225 -2.1725 194.895 -1.595 196 -1 C197.010625 -0.46375 198.02125 0.0725 199.0625 0.625 C204.17427998 4.75792849 208.49894389 10.6837595 209.2734375 17.35546875 C209.77284148 31.28115667 204.65880297 43.5711661 197 55 C196.61650391 55.57524414 196.23300781 56.15048828 195.83789062 56.74316406 C184.08355007 74.22517612 170.09127652 85.68177964 149 90 C144.65016815 90.40941455 140.33089413 90.44090124 135.96386719 90.43579102 C134.70863754 90.44586685 133.4534079 90.45594269 132.16014099 90.46632385 C128.74856837 90.48978049 125.33754387 90.49984694 121.92592907 90.50177121 C119.78545785 90.5039177 117.64504249 90.51034864 115.50458527 90.51826286 C108.01132108 90.54593689 100.51821594 90.55827845 93.02490234 90.5559082 C86.08155951 90.55410817 79.13891758 90.58573885 72.19575191 90.63313919 C66.19955872 90.67259022 60.20359255 90.68845058 54.20727086 90.68654197 C50.64139504 90.68578353 47.07614331 90.6939691 43.51039886 90.72607613 C15.19876959 90.96341874 15.19876959 90.96341874 3 84 C1.99193298 83.45585953 0.98386597 82.91171906 -0.05474854 82.35108948 C-18.072712 72.24906252 -30.31943226 52.97133985 -37 33.875 C-38.89808879 26.53076101 -39.61436321 17.6145886 -36.4375 10.5625 C-27.82401463 -3.50217716 -14.58313224 -7.45087765 0 0 Z " fill="#00405B" transform="translate(423,513)"/>
<path d="M0 0 C5.03741659 4.17642957 9.5784795 8.55675487 14 13.375 C14.61665527 14.04128418 15.23331055 14.70756836 15.86865234 15.39404297 C19.36321614 19.18128691 22.80327703 23.00736264 26.1640625 26.9140625 C28.72491983 29.82363231 31.36415072 32.6584259 34 35.5 C37.80719454 39.60579803 41.56313532 43.74128327 45.2265625 47.9765625 C47.45138092 50.51501171 49.72503319 53.00641776 52 55.5 C54.82577384 58.59731967 57.63218779 61.7040415 60.375 64.875 C62.53198015 67.36739572 64.73879296 69.80205995 66.9921875 72.20703125 C67.5279541 72.78018066 68.0637207 73.35333008 68.61572266 73.94384766 C69.68182034 75.08129458 70.75164606 76.21526212 71.82568359 77.34521484 C75.6962595 81.47743514 78.71565748 84.90297388 79.5 90.6875 C79.24294203 97.13843091 75.9939804 102.95489189 71.5625 107.5 C64.85686524 111.42524961 58.53902771 111.29657234 50.97119141 111.29052734 C49.1603582 111.30060318 49.1603582 111.30060318 47.3129425 111.31088257 C44.01320186 111.32659344 40.71371296 111.33323567 37.41395235 111.33451414 C35.34912198 111.33593918 33.28431773 111.34021543 31.21949387 111.34550858 C24.00666386 111.36399081 16.79390759 111.37218138 9.58105469 111.37060547 C2.87243456 111.36940426 -3.83586376 111.39050693 -10.54440248 111.4220928 C-16.31701517 111.44829723 -22.08952299 111.45897104 -27.86219466 111.45769465 C-31.30426532 111.45718627 -34.7460497 111.46279999 -38.18806076 111.48405075 C-42.02963435 111.50712284 -45.87077088 111.49788673 -49.71240234 111.48583984 C-50.84305618 111.49707886 -51.97371002 111.50831787 -53.1386261 111.51989746 C-60.75861818 111.45925406 -66.26983026 110.38916542 -72.09375 105.09765625 C-75.93351873 99.54065761 -76.92991617 94.81288388 -76.5703125 88.06640625 C-75.65399364 83.13962334 -73.43753878 80.51954766 -70 77 C-68.39393772 75.23088572 -66.78992126 73.4599129 -65.1875 71.6875 C-64.32769531 70.75679688 -63.46789062 69.82609375 -62.58203125 68.8671875 C-60.07727288 66.0858068 -57.71629421 63.23204131 -55.375 60.3125 C-52.08591595 56.23588878 -48.63080282 52.52019864 -44.87890625 48.87109375 C-42.4871961 46.48932834 -40.3126285 43.95675867 -38.11328125 41.3984375 C-34.78197089 37.61761576 -31.32904239 33.95020575 -27.88208008 30.27490234 C-25.07290434 27.26993687 -22.3162579 24.23288159 -19.62109375 21.125 C-15.71824376 16.6386171 -11.65109158 12.31677464 -7.5625 8 C-6.83095703 7.22527344 -6.09941406 6.45054687 -5.34570312 5.65234375 C-3.56509786 3.766997 -1.78318322 1.88290809 0 0 Z " fill="#96D8F5" transform="translate(507,300)"/>
<path d="M0 0 C2 3 2 3 1.80078125 4.9453125 C0.89095863 7.2797842 -0.25656478 8.9133399 -1.8125 10.875 C-3.75198781 13.35866065 -5.57427491 15.83148684 -7.25 18.5 C-8.11625 19.7375 -8.11625 19.7375 -9 21 C-9.66 21 -10.32 21 -11 21 C-11.2475 21.78375 -11.495 22.5675 -11.75 23.375 C-13.15389099 26.32317108 -14.00675737 26.9024777 -17 28 C-16.87625 29.546875 -16.87625 29.546875 -16.75 31.125 C-17.03807561 35.59017199 -18.28644717 37.52326044 -21 41 C-21.99 40.67 -22.98 40.34 -24 40 C-19.81307757 31.2252796 -15.51405957 22.84735866 -9.9609375 14.8359375 C-7.30321052 10.99229251 -4.83259223 7.03868329 -2.34765625 3.08203125 C-1 1 -1 1 0 0 Z " fill="#69D2EC" transform="translate(337,499)"/>
<path d="M0 0 C1 2 1 2 0.25 4.3125 C-1.01546306 7.03324558 -2.38801407 9.46687926 -4 12 C-4.44601562 12.74121094 -4.89203125 13.48242188 -5.3515625 14.24609375 C-5.85429687 15.05175781 -6.35703125 15.85742188 -6.875 16.6875 C-7.34679687 17.45449219 -7.81859375 18.22148437 -8.3046875 19.01171875 C-10.32139494 21.37693554 -12.07008041 22.07136447 -15 23 C-15 24.32 -15 25.64 -15 27 C-16.65 27.66 -18.3 28.32 -20 29 C-19.67 27.68 -19.34 26.36 -19 25 C-18.34 25 -17.68 25 -17 25 C-16.61908203 23.90751953 -16.61908203 23.90751953 -16.23046875 22.79296875 C-14.92163623 19.82212668 -13.39786964 17.79118101 -11.3125 15.3125 C-7.26104139 10.38705214 -3.58784823 5.26965208 0 0 Z " fill="#68D0EA" transform="translate(358,470)"/>
<path d="M0 0 C1.15625 3.6953125 1.15625 3.6953125 -0.25 6.4375 C-1.11625 7.7059375 -1.11625 7.7059375 -2 9 C-2.495 9.845625 -2.99 10.69125 -3.5 11.5625 C-6.25 16.03125 -6.25 16.03125 -8 18 C-8.99 18 -9.98 18 -11 18 C-11.144375 18.61875 -11.28875 19.2375 -11.4375 19.875 C-12 22 -12 22 -13 24 C-13.66 24 -14.32 24 -15 24 C-15 24.66 -15 25.32 -15 26 C-16.32 25.67 -17.64 25.34 -19 25 C-18.63390625 24.61972656 -18.2678125 24.23945312 -17.890625 23.84765625 C-11.14279654 16.50537624 -5.65669227 8.18735445 0 0 Z " fill="#6DCDEB" transform="translate(747,678)"/>
<path d="M0 0 C0.33 0 0.66 0 1 0 C1.54241113 6.64453639 0.94958619 10.55597579 -3 16 C-5.625 18.25 -5.625 18.25 -8 20 C-8.66 20.99 -9.32 21.98 -10 23 C-10.99 22.67 -11.98 22.34 -13 22 C-12.56429687 21.41734375 -12.12859375 20.8346875 -11.6796875 20.234375 C-7.01146288 13.80798786 -3.37025526 7.18493978 0 0 Z " fill="#5CC9E6" transform="translate(627,553)"/>
<path d="M0 0 C1.26403575 3.59566927 0.73990566 6.05299344 -0.25 9.6875 C-0.50265625 10.66074219 -0.7553125 11.63398437 -1.015625 12.63671875 C-1.34046875 13.41660156 -1.6653125 14.19648437 -2 15 C-2.99 15.33 -3.98 15.66 -5 16 C-4.896875 16.763125 -4.79375 17.52625 -4.6875 18.3125 C-4.790625 19.199375 -4.89375 20.08625 -5 21 C-7.5 22.8125 -7.5 22.8125 -10 24 C-8.34779511 18.66210728 -6.01169079 13.94244632 -3.4375 9 C-2.02307175 6.04814974 -0.96687342 3.12374489 0 0 Z " fill="#63C0E0" transform="translate(758,654)"/>
<path d="M0 0 C0 3.37075543 -0.70458685 4.71273253 -2.3125 7.625 C-2.74175781 8.42164063 -3.17101562 9.21828125 -3.61328125 10.0390625 C-5 12 -5 12 -8 13 C-8.99 14.485 -8.99 14.485 -10 16 C-12.125 16.6875 -12.125 16.6875 -14 17 C-11.6315417 12.64300674 -8.68427143 9.26810372 -5.3125 5.6875 C-4.80138672 5.13771484 -4.29027344 4.58792969 -3.76367188 4.02148438 C-2.51302966 2.6773362 -1.25705376 1.338154 0 0 Z " fill="#64C4E2" transform="translate(489,319)"/>
<path d="M0 0 C1 2 1 2 0.4375 5.3125 C-1.35089172 9.90011354 -3.11690775 11.10833556 -7 14 C-7.33 14.66 -7.66 15.32 -8 16 C-8.66 16 -9.32 16 -10 16 C-8.61936434 12.14254559 -6.82183102 9.07512134 -4.4375 5.75 C-3.81746094 4.87859375 -3.19742188 4.0071875 -2.55859375 3.109375 C-1 1 -1 1 0 0 Z " fill="#57BFD9" transform="translate(565,727)"/>
<path d="M0 0 C0.33 1.32 0.66 2.64 1 4 C0.01 4.33 -0.98 4.66 -2 5 C-2.15339844 5.62390625 -2.30679687 6.2478125 -2.46484375 6.890625 C-3.16174588 9.63753852 -4.22868522 10.22241214 -6.5625 11.75 C-7.20316406 12.17796875 -7.84382813 12.6059375 -8.50390625 13.046875 C-9.24447266 13.51867187 -9.24447266 13.51867187 -10 14 C-10.66 13.67 -11.32 13.34 -12 13 C-8.04 8.71 -4.08 4.42 0 0 Z " fill="#59C7E2" transform="translate(462,349)"/>
<path d="M0 0 C0.33 0.66 0.66 1.32 1 2 C0.67 2.99 0.34 3.98 0 5 C-0.66 5 -1.32 5 -2 5 C-1.68095703 5.87398437 -1.68095703 5.87398437 -1.35546875 6.765625 C-1 9 -1 9 -1.92578125 10.921875 C-2.61220703 11.82679688 -2.61220703 11.82679688 -3.3125 12.75 C-3.98732422 13.67039062 -3.98732422 13.67039062 -4.67578125 14.609375 C-5.11277344 15.06828125 -5.54976562 15.5271875 -6 16 C-6.66 16 -7.32 16 -8 16 C-6.25267359 9.73519555 -4.02879721 5.11766132 0 0 Z " fill="#6ECDE4" transform="translate(554,743)"/>
<path d="M0 0 C0.33 1.32 0.66 2.64 1 4 C-0.98 4.99 -0.98 4.99 -3 6 C-3 6.66 -3 7.32 -3 8 C-3.66 8 -4.32 8 -5 8 C-5.33 8.99 -5.66 9.98 -6 11 C-7.65 11.33 -9.3 11.66 -11 12 C-7.49102731 7.81576108 -3.91939465 3.80411834 0 0 Z " fill="#74CAEA" transform="translate(577,715)"/>
<path d="M0 0 C0.66 0.33 1.32 0.66 2 1 C0.75965588 2.32162881 -0.49268626 3.63200453 -1.75 4.9375 C-2.44609375 5.66839844 -3.1421875 6.39929688 -3.859375 7.15234375 C-6.94542192 9.81603023 -8.99908764 10 -13 10 C-11.58367866 8.89539041 -10.16692736 7.79133212 -8.75 6.6875 C-7.96109375 6.07261719 -7.1721875 5.45773437 -6.359375 4.82421875 C-4.2537703 3.19620982 -2.13390657 1.59064137 0 0 Z " fill="#76C0E0" transform="translate(594,702)"/>
<path d="M0 0 C1.21173548 3.58327493 0.85034764 6.42285625 0.25 10.125 C0.09015625 11.17945313 -0.0696875 12.23390625 -0.234375 13.3203125 C-1 16 -1 16 -4 18 C-3.41632611 11.69632197 -1.95928381 6.01339937 0 0 Z " fill="#72B4CE" transform="translate(304,559)"/>
<path d="M0 0 C0.66 1.32 1.32 2.64 2 4 C0.35 4.66 -1.3 5.32 -3 6 C-3 7.32 -3 8.64 -3 10 C-4.65 10.66 -6.3 11.32 -8 12 C-7.67 10.68 -7.34 9.36 -7 8 C-6.34 8 -5.68 8 -5 8 C-4.731875 7.236875 -4.46375 6.47375 -4.1875 5.6875 C-3.05575888 3.12619116 -2.08776599 1.80307062 0 0 Z " fill="#5AC6E4" transform="translate(346,487)"/>
<path d="M0 0 C0.33 0.66 0.66 1.32 1 2 C-0.81291649 5.81666629 -2.29070176 7.20517827 -6 9 C-7.26804566 11.0335948 -7.26804566 11.0335948 -8 13 C-8.99 12.67 -9.98 12.34 -11 12 C-9.54234835 10.37438849 -8.08385614 8.74953066 -6.625 7.125 C-5.81289063 6.22007812 -5.00078125 5.31515625 -4.1640625 4.3828125 C-2.80923795 2.89103817 -1.42494565 1.42494565 0 0 Z " fill="#58C6E2" transform="translate(474,336)"/>
<path d="M0 0 C0.99 0 1.98 0 3 0 C2.43454163 3.95820859 1.19097652 6.6659053 -1 10 C-1.99 9.67 -2.98 9.34 -4 9 C-2.68 6.03 -1.36 3.06 0 0 Z " fill="#73D1EB" transform="translate(317,530)"/>
<path d="M0 0 C0.33 0.99 0.66 1.98 1 3 C-2.03797468 8.62587904 -2.03797468 8.62587904 -5.25 9.875 C-5.8275 9.91625 -6.405 9.9575 -7 10 C-7 10.66 -7 11.32 -7 12 C-7.66 12 -8.32 12 -9 12 C-7.55575365 8.76138697 -5.74227753 6.38030837 -3.375 3.75 C-2.74335938 3.04359375 -2.11171875 2.3371875 -1.4609375 1.609375 C-0.97882813 1.07828125 -0.49671875 0.5471875 0 0 Z " fill="#6ACFE4" transform="translate(449,363)"/>
<path d="M0 0 C0.33 0 0.66 0 1 0 C1.35050464 5.841744 1.16727335 9.8531808 -2 15 C-2.97161849 11.94145449 -2.99142062 10.01744728 -2.125 6.9375 C-1.94195313 6.26589844 -1.75890625 5.59429688 -1.5703125 4.90234375 C-1.07756153 3.25871552 -0.54261564 1.62784691 0 0 Z " fill="#73CFED" transform="translate(627,553)"/>
<path d="M0 0 C0.33 0.99 0.66 1.98 1 3 C-2.16952847 6.26008643 -5.39937989 9.22237877 -9 12 C-9.66 11.67 -10.32 11.34 -11 11 C-7.37 7.37 -3.74 3.74 0 0 Z " fill="#6CC3E2" transform="translate(727,704)"/>
<path d="M0 0 C0.99 0.33 1.98 0.66 3 1 C0.64315404 4.34920216 -2.06799526 7.14723863 -5 10 C-5.33 8.68 -5.66 7.36 -6 6 C-5.01 6 -4.02 6 -3 6 C-2.690625 5.195625 -2.38125 4.39125 -2.0625 3.5625 C-1 1 -1 1 0 0 Z " fill="#7FE2FD" transform="translate(469,343)"/>
<path d="M0 0 C0.8440534 2.36334952 1.1709445 3.55839337 0.25 5.9375 C-0.1625 6.618125 -0.575 7.29875 -1 8 C-1.53625 8.9075 -2.0725 9.815 -2.625 10.75 C-3.305625 11.86375 -3.305625 11.86375 -4 13 C-5 11 -5 11 -4.2578125 8.65234375 C-3.88398438 7.75644531 -3.51015625 6.86054687 -3.125 5.9375 C-2.75632812 5.03902344 -2.38765625 4.14054688 -2.0078125 3.21484375 C-1 1 -1 1 0 0 Z " fill="#64B3CF" transform="translate(310,545)"/>
<path d="M0 0 C1.32 0 2.64 0 4 0 C3.61402985 2.79828356 3.19863427 3.8205884 1.0625 5.75 C-1 7 -1 7 -3 7 C-2.25 2.25 -2.25 2.25 0 0 Z " fill="#7AE3FC" transform="translate(340,497)"/>
<path d="M0 0 C0.33 0.66 0.66 1.32 1 2 C-2.14754098 8.64480874 -2.14754098 8.64480874 -5.25 9.9375 C-5.8275 9.958125 -6.405 9.97875 -7 10 C-5.6062718 5.56541027 -3.39417765 3.12621626 0 0 Z " fill="#6CC7E4" transform="translate(371,454)"/>
<path d="M0 0 C0.99 0.33 1.98 0.66 3 1 C1.71937515 2.7074998 0.38232443 4.37373596 -1 6 C-1.66 6 -2.32 6 -3 6 C-3 6.66 -3 7.32 -3 8 C-4.65 8.66 -6.3 9.32 -8 10 C-7.04367001 8.70684939 -6.08486149 7.41553147 -5.125 6.125 C-4.59132813 5.40570313 -4.05765625 4.68640625 -3.5078125 3.9453125 C-2 2 -2 2 0 0 Z " fill="#094360" transform="translate(357,392)"/>
<path d="M0 0 C0.66 0.33 1.32 0.66 2 1 C1 4 1 4 -2 6 C-2.99 6 -3.98 6 -5 6 C-5.33 6.66 -5.66 7.32 -6 8 C-6.99 7.67 -7.98 7.34 -9 7 C-6.03 4.69 -3.06 2.38 0 0 Z " fill="#6DBFDD" transform="translate(714,716)"/>
<path d="M0 0 C1.33332095 2.6666419 0.67102033 4.16680303 0 7 C-0.99 7 -1.98 7 -3 7 C-3.66 8.32 -4.32 9.64 -5 11 C-5.33 10.34 -5.66 9.68 -6 9 C-4.02 6.03 -2.04 3.06 0 0 Z " fill="#54C6E0" transform="translate(337,499)"/>
<path d="M0 0 C1 4 1 4 -0.9375 7.25 C-1.618125 8.1575 -2.29875 9.065 -3 10 C-3.99 9.67 -4.98 9.34 -6 9 C-4.02 6.03 -2.04 3.06 0 0 Z " fill="#61C7E3" transform="translate(747,678)"/>
<path d="M0 0 C1.60031344 3.20062687 0.03173691 5.72271806 -1 9 C-1.66 9 -2.32 9 -3 9 C-3.36923077 3.46153846 -3.36923077 3.46153846 -1.5 1.125 C-1.005 0.75375 -0.51 0.3825 0 0 Z " fill="#68C8E4" transform="translate(565,727)"/>
<path d="M0 0 C0.66 0.33 1.32 0.66 2 1 C-1.44615385 5.8 -1.44615385 5.8 -4.25 6.8125 C-5.11625 6.9053125 -5.11625 6.9053125 -6 7 C-6 7.66 -6 8.32 -6 9 C-6.66 9 -7.32 9 -8 9 C-6.59645587 5.49113968 -5.35634177 4.5732852 -2 3 C-1.34 2.01 -0.68 1.02 0 0 Z " fill="#77D4EF" transform="translate(619,572)"/>
<path d="M0 0 C0.33 0 0.66 0 1 0 C1.05422947 1.4370809 1.09289723 2.87475462 1.125 4.3125 C1.14820313 5.11300781 1.17140625 5.91351562 1.1953125 6.73828125 C1 9 1 9 -1 12 C-1.66 12 -2.32 12 -3 12 C-2.01 8.04 -1.02 4.08 0 0 Z " fill="#68AECD" transform="translate(631,540)"/>
<path d="M0 0 C0.99 0.33 1.98 0.66 3 1 C2.39816251 3.02045442 1.72693904 5.02111039 1 7 C0.01 7.495 0.01 7.495 -1 8 C-1.04241723 5.66705225 -1.04092937 3.33297433 -1 1 C-0.67 0.67 -0.34 0.34 0 0 Z " fill="#105F7A" transform="translate(545,752)"/>
<path d="M0 0 C0.33 0.99 0.66 1.98 1 3 C-0.21484375 4.82421875 -0.21484375 4.82421875 -1.9375 6.6875 C-2.50339844 7.31011719 -3.06929687 7.93273437 -3.65234375 8.57421875 C-4.09707031 9.04472656 -4.54179688 9.51523437 -5 10 C-5.66 9.01 -6.32 8.02 -7 7 C-6.21625 6.401875 -5.4325 5.80375 -4.625 5.1875 C-1.85425677 3.08914751 -1.85425677 3.08914751 0 0 Z " fill="#8ACBE7" transform="translate(611,689)"/>
<path d="M0 0 C0.66 0.33 1.32 0.66 2 1 C-0.36595933 3.61500768 -2.86049226 5.38999603 -6 7 C-6.66 6.67 -7.32 6.34 -8 6 C-3.375 1.125 -3.375 1.125 0 0 Z " fill="#6AD4EC" transform="translate(458,356)"/>
<path d="M0 0 C0.97140086 3.02213602 1.19248372 5.0187907 0 8 C-0.99 8.66 -1.98 9.32 -3 10 C-2.39009109 6.44219804 -1.4216319 3.3171411 0 0 Z " fill="#55A7BE" transform="translate(542,764)"/>
<path d="M0 0 C0.66 0.66 1.32 1.32 2 2 C0.35 3.65 -1.3 5.3 -3 7 C-3.33 6.34 -3.66 5.68 -4 5 C-2.52830189 1.26415094 -2.52830189 1.26415094 0 0 Z " fill="#81DBF8" transform="translate(751,676)"/>
<path d="M0 0 C1 2 1 2 0.25 4.4375 C-0.93098981 6.85852911 -1.9831559 8.25818009 -4 10 C-3.5205537 5.78087253 -2.83374881 3.20336822 0 0 Z " fill="#63B6D2" transform="translate(435,379)"/>
<path d="M0 0 C1 2 1 2 0.375 4.0625 C-1 6 -1 6 -3.625 6.75 C-4.800625 6.87375 -4.800625 6.87375 -6 7 C-4.02 4.69 -2.04 2.38 0 0 Z " fill="#68C8E5" transform="translate(572,720)"/>
<path d="M0 0 C0.66 0.33 1.32 0.66 2 1 C-1.465 3.97 -1.465 3.97 -5 7 C-5.66 6.67 -6.32 6.34 -7 6 C-4.69 4.02 -2.38 2.04 0 0 Z " fill="#134E69" transform="translate(595,512)"/>
</svg>
